<svg enable-background="new 0 0 512 512" height="512" id="Capa_1" viewBox="0 0 512 512" width="512"
    xmlns="http://www.w3.org/2000/svg">
    <g>
        <g>
            <g>
                <g>
                    <g>
                        <path
                            d="m261.748 279.049v-61.733h-85.928v61.733c0 10.503-7.282 19.548-17.448 21.885 0 0 2.28 50.755 60.412 50.755s64.09-50.011 64.09-50.011l-2.897-.557c-10.582-2.037-18.229-11.297-18.229-22.072z"
                            fill="#ffddce" />
                        <path
                            d="m389.364 491.847c12.203 0 22.095-9.892 22.095-22.095v-33.695c0-63.64-45.165-118.325-107.658-130.352l-20.928-4.028c-15.439 16.593-37.461 26.976-61.914 26.976-24.814 0-47.119-10.697-62.588-27.719-.261.06-.516.135-.781.186l-23.825 4.585c-62.492 12.027-107.657 66.712-107.657 130.352v33.695c0 12.203 9.892 22.095 22.095 22.095z"
                            fill="#f2f9ff" />
                    </g>
                    <g>
                        <path
                            d="m196.431 217.316v82.169c0 10.776 7.647 20.035 18.229 22.071 5.811 1.118 17.479 3.364 23.825 4.585 9.6 1.847 18.791 4.702 27.472 8.441 14.722-14.482 16.916-32.904 16.916-32.904l-2.897-.557c-10.581-2.036-18.229-11.296-18.229-22.071v-61.733h-65.316z"
                            fill="#ffcbbe" />
                        <g>
                            <path
                                d="m303.802 305.705-20.928-4.028c-11.275 12.118-26.062 20.923-42.742 24.792 61.638 12.663 106.011 66.944 106.011 130.024v33.695c0 .558-.021 1.112-.062 1.659h43.283c12.203 0 22.095-9.892 22.095-22.095v-33.695c.001-63.64-45.164-118.325-107.657-130.352z"
                                fill="#e2f4ff" />
                        </g>
                        <path
                            d="m426.045 419.504c-10.209 24.099-38.02 35.359-62.119 25.151-24.099-10.209-35.359-38.02-25.151-62.119 10.209-24.099 38.02-35.359 62.119-25.151 24.099 10.209 35.359 38.02 25.151 62.119z"
                            fill="#95d6a4" />
                    </g>
                    <g>
                        <path
                            d="m313.415 141.242-6.047.026-.102-24.367c-.213-51.054-42.342-86.424-89.053-86.752-46.507.724-88.541 36.262-88.327 87.509l.072 17.18.03 7.187-6.047.026c-8.865.038-16.021 7.343-15.984 16.316l.075 18.005c.037 8.973 7.254 16.217 16.119 16.179l6.071-.026c.598 23.578 10.482 46.232 28.232 61.571 14.29 12.348 34.349 23.094 60.789 23.28 26.437-.411 46.406-11.328 60.592-23.798 17.622-15.489 27.316-38.227 27.718-61.809l6.071-.026c8.865-.038 16.021-7.343 15.984-16.316l-.075-18.005c-.036-8.974-7.252-16.218-16.118-16.18z"
                            fill="#ffddce" />
                        <path
                            d="m323.564 87.814c-1.47-1.62-2.295-3.719-2.286-5.906.052-12.511-7.536-23.249-18.327-27.686-2.894-1.19-4.966-3.701-5.748-6.731-2.733-10.593-12.648-18.247-24.177-17.241-3.576-8.126-11.61-13.799-20.965-13.799-2.164 0-4.254.309-6.235.881-3.262.942-6.714.002-9.033-2.477-4.184-4.475-10.107-7.266-16.675-7.266-.448 0-2.221 0-2.669 0-6.567 0-12.49 2.791-16.675 7.266-2.319 2.48-5.771 3.419-9.033 2.477-1.981-.572-4.071-.881-6.235-.881-9.355 0-17.389 5.673-20.965 13.799-11.51-1.004-21.44 6.63-24.177 17.241-.782 3.03-2.854 5.541-5.748 6.731-10.791 4.436-18.38 15.175-18.327 27.686.009 2.187-.816 4.286-2.286 5.906-3.754 4.137-6.046 9.654-6.046 15.714 0 19.275 8.59 40.384 8.59 40.384s25.776-.42 34.531 8.246c1.841 1.822 4.932.518 4.921-2.088l-.17-40.758c-.059-14.153 11.228-25.675 25.21-25.735l.304-.002c4.279-.018 8.513.647 12.556 1.946 7.164 2.302 14.587 3.698 22.112 3.666h5.543c7.524.032 14.948-1.364 22.112-3.666 4.043-1.299 8.276-1.964 12.556-1.946l.305.002c13.982.06 25.269 11.582 25.21 25.735l-.17 40.758c-.011 2.606 3.081 3.91 4.921 2.088 8.755-8.666 34.531-8.246 34.531-8.246s8.59-21.109 8.59-40.384c.001-6.059-2.291-11.577-6.045-15.714z"
                            fill="#eab14d" />
                        <path
                            d="m329.535 157.421c-.037-8.973-7.254-16.217-16.119-16.179l-6.047.026-.102-24.367c-.142-34.078-18.96-61.168-45.35-75.513 1.831 6.605 2.829 13.782 2.861 21.527l.288 128.853c-.402 23.582-10.097 46.32-27.718 61.809-10.18 8.948-23.338 17.097-39.726 21.137 6.67 1.644 13.872 2.606 21.623 2.661 26.437-.411 46.406-11.328 60.592-23.798 17.622-15.489 27.316-38.227 27.718-61.809l6.071-.026c8.865-.038 16.021-7.343 15.984-16.316z"
                            fill="#ffcbbe" />
                        <path
                            d="m323.564 87.814c-1.47-1.62-2.295-3.719-2.286-5.906.052-12.511-7.536-23.249-18.327-27.686-2.894-1.19-4.966-3.701-5.748-6.731-2.733-10.593-12.648-18.247-24.177-17.241-3.576-8.126-11.61-13.799-20.965-13.799-.918 0-1.823.056-2.712.164 9.586 12.039 15.35 27.495 15.429 46.299l.049 22.11c9.888 3.522 16.957 13.08 16.91 24.288l-.17 40.758c-.011 2.606 3.081 3.91 4.921 2.088 8.755-8.666 34.531-8.246 34.531-8.246s8.59-21.109 8.59-40.384c.001-6.059-2.291-11.577-6.045-15.714z"
                            fill="#e49542" />
                    </g>
                </g>
                <path
                    d="m141.928 304.135-8.162 1.571c-11.051 2.127-21.556 5.593-31.369 10.201v113.196h39.531z"
                    fill="#3b66c1" />
                <path
                    d="m334.768 315.715c-9.697-4.514-20.067-7.912-30.966-10.01l-8.565-1.648v125.046h39.531z"
                    fill="#3b66c1" />
                <path
                    d="m353.943 491.847v-30.35c0-8.619-3.453-16.878-9.588-22.932-6.134-6.054-9.588-14.314-9.588-22.932 0-10.627-8.615-19.242-19.242-19.242h-193.887c-10.627 0-19.242 8.615-19.242 19.242v.201c0 8.5-3.359 16.656-9.345 22.691l-.082.082c-5.986 6.035-9.345 14.19-9.345 22.691v30.551h270.319z"
                    fill="#4073c8" />
            </g>
            <path
                d="m479.178 418.059c-4.068-1.723-6.601-5.845-6.27-10.251.305-4.052.333-8.096.095-12.105-.262-4.418 2.329-8.509 6.432-10.17l.004-.002c5.287-2.141 7.838-8.163 5.698-13.45l-8.802-21.741c-2.141-5.287-8.163-7.838-13.45-5.698l-.004.002c-4.103 1.661-8.81.526-11.695-2.831-2.618-3.046-5.452-5.931-8.49-8.63-3.303-2.934-4.351-7.657-2.628-11.726 2.225-5.252-.229-11.314-5.482-13.539l-21.598-9.149c-5.253-2.225-11.314.229-13.539 5.482-1.723 4.068-5.845 6.601-10.251 6.27-4.052-.305-8.096-.333-12.105-.095-4.418.262-8.509-2.329-10.17-6.432l-.002-.004c-2.141-5.287-8.163-7.838-13.45-5.698l-21.741 8.803c-5.287 2.141-7.838 8.163-5.698 13.45l.002.004c1.661 4.103.526 8.81-2.831 11.695-3.046 2.618-5.931 5.452-8.63 8.49-2.934 3.303-7.657 4.351-11.725 2.628-5.253-2.225-11.314.229-13.539 5.482l-9.149 21.598c-2.225 5.253.229 11.314 5.482 13.539 4.068 1.723 6.601 5.845 6.27 10.251-.305 4.052-.333 8.096-.095 12.105.263 4.418-2.329 8.509-6.432 10.17l-.004.002c-5.287 2.141-7.838 8.163-5.698 13.45l8.803 21.741c2.141 5.287 8.162 7.838 13.45 5.698l.004-.002c4.103-1.661 8.81-.526 11.695 2.831 2.618 3.046 5.452 5.931 8.49 8.63 3.303 2.935 4.351 7.657 2.628 11.726-2.225 5.253.229 11.314 5.482 13.539l21.598 9.149c5.253 2.225 11.314-.229 13.539-5.482 1.723-4.068 5.845-6.601 10.251-6.27 4.052.305 8.096.333 12.105.095 4.418-.262 8.509 2.329 10.17 6.432l.002.004c2.141 5.287 8.162 7.838 13.45 5.698l21.741-8.803c5.287-2.141 7.838-8.162 5.698-13.45l-.002-.004c-1.661-4.103-.526-8.81 2.831-11.695 3.046-2.618 5.931-5.452 8.63-8.49 2.935-3.303 7.657-4.351 11.725-2.628 5.253 2.225 11.314-.229 13.539-5.482l9.149-21.598c2.224-5.252-.23-11.314-5.483-13.539zm-53.133 1.445c-10.209 24.099-38.02 35.359-62.119 25.151-24.099-10.209-35.359-38.02-25.151-62.119 10.209-24.099 38.02-35.359 62.119-25.151 24.099 10.209 35.359 38.02 25.151 62.119z"
                fill="#81a7c6" />
            <path
                d="m479.178 418.059c-4.068-1.723-6.601-5.845-6.27-10.251.305-4.052.333-8.096.095-12.105-.262-4.418 2.329-8.509 6.432-10.17l.004-.002c5.287-2.141 7.838-8.163 5.698-13.45l-8.802-21.741c-2.141-5.287-8.163-7.838-13.45-5.698l-.004.002c-4.103 1.661-8.81.526-11.695-2.831-2.618-3.046-5.452-5.931-8.49-8.63-3.303-2.934-4.351-7.657-2.628-11.726 2.225-5.252-.229-11.314-5.482-13.539l-21.598-9.149c-5.253-2.225-11.314.229-13.539 5.482-1.723 4.068-5.845 6.601-10.251 6.27-4.052-.305-8.096-.333-12.105-.095-4.418.262-8.509-2.329-10.17-6.432l-.002-.004c-2.141-5.287-8.163-7.838-13.45-5.698l-8.308 3.364c27.433 10.178 49.506 31.393 60.824 58.251 20.543 11.747 29.518 37.265 20.058 59.596-4.2 9.916-11.381 17.657-20.057 22.624-11.329 26.885-33.433 48.116-60.904 58.283l6.748 2.859c5.253 2.225 11.314-.229 13.539-5.482 1.723-4.068 5.845-6.601 10.251-6.27 4.052.305 8.096.333 12.105.095 4.418-.262 8.509 2.329 10.17 6.432l.002.004c2.141 5.287 8.163 7.838 13.45 5.698l21.741-8.803c5.287-2.141 7.838-8.162 5.698-13.45l-.002-.004c-1.661-4.103-.526-8.81 2.831-11.695 3.046-2.618 5.931-5.452 8.63-8.49 2.934-3.303 7.657-4.351 11.725-2.628 5.253 2.225 11.314-.229 13.539-5.482l9.149-21.598c2.225-5.25-.229-11.312-5.482-13.537z"
                fill="#5c90b9" />
        </g>
        <g>
            <path
                d="m362.472 349.891c-3.858 1.505-5.767 5.853-4.261 9.711 1.505 3.858 5.853 5.769 9.711 4.261 32.37-12.627 64.174 19.536 51.651 51.651-1.504 3.859.404 8.207 4.262 9.71 3.85 1.503 8.204-.397 9.711-4.262 17.231-44.196-26.531-88.445-71.074-71.071z" />
            <path
                d="m399.365 437.138c-.645.303-1.317.596-1.989.868-33.696 13.648-66.43-21.386-51.044-54.003 1.767-3.745.163-8.213-3.583-9.981-3.746-1.763-8.214-.163-9.981 3.583-21.146 44.826 23.803 93.104 70.242 74.299.921-.374 1.835-.772 2.716-1.185 3.75-1.757 5.367-6.221 3.61-9.971s-6.221-5.364-9.971-3.61z" />
            <path
                d="m482.104 411.154c-1.117-.473-1.807-1.592-1.717-2.784.327-4.347.361-8.759.103-13.113-.071-1.188.618-2.29 1.717-2.756.016-.007.031-.013.047-.02 9.111-3.69 13.523-14.104 9.833-23.214l-8.802-21.741c-3.679-9.09-13.997-13.504-23.111-9.875-.036.014-.071.027-.107.042-1.126.458-2.409.146-3.196-.768-2.844-3.308-5.938-6.453-9.195-9.346-.894-.795-1.177-2.079-.704-3.195 3.834-9.052-.41-19.535-9.461-23.37l-21.597-9.149c-9.052-3.833-19.535.41-23.37 9.462-.473 1.116-1.596 1.793-2.784 1.717-4.347-.327-8.759-.361-13.112-.103-1.2.06-2.306-.628-2.767-1.741-.003-.008-.006-.016-.009-.023-3.689-9.112-14.103-13.523-23.215-9.835l-21.74 8.803c-1.883.762-3.591 1.818-5.076 3.119-11.831-4.009-18.867-4.971-42.447-9.508-7.038-1.354-12.146-7.54-12.146-14.707v-8.39c5.384-3.262 10.568-7.08 15.54-11.451 17.03-14.968 27.687-36.527 29.864-59.993 12.534-.575 22.51-11.018 22.457-23.821l-.075-18.005c-.026-6.325-2.562-12.295-6.877-16.666 2.709-8.049 6.952-22.931 6.952-37.195 0-7.704-2.838-15.074-7.991-20.753-.221-.243-.342-.541-.341-.836.064-15.285-8.954-28.888-22.974-34.652-.646-.266-1.134-.874-1.339-1.668-3.313-12.847-14.248-21.845-26.999-22.86-7.323-11.187-21.002-16.304-33.718-12.632-.561.162-1.087.022-1.476-.393-12.13-12.973-34.833-12.984-46.972-.001-.39.417-.914.556-1.476.395-12.744-3.683-26.412 1.469-33.719 12.631-12.75 1.017-23.686 10.014-26.999 22.859-.205.795-.693 1.403-1.338 1.669-14.02 5.765-23.039 19.366-22.975 34.653.001.295-.12.592-.34.835-5.153 5.679-7.991 13.05-7.991 20.753 0 14.588 4.438 29.823 7.134 37.733-4.529 4.428-7.161 10.566-7.134 17.137l.075 18.005c.053 12.797 10.111 23.162 22.655 23.629 2.374 23.446 13.211 44.915 30.363 59.737 4.74 4.096 9.666 7.696 14.768 10.796v8.484c0 12.052-11.535 14.513-11.635 14.578-.916.223-9.182 1.782-24.337 4.715-66.056 12.711-113.74 70.753-113.74 137.715v33.694c0 16.319 13.276 29.595 29.594 29.595h276.014c2.536 1.721 2.755 1.422 24.688 10.829 9.075 3.841 19.526-.387 23.37-9.461.473-1.116 1.588-1.802 2.784-1.717 4.345.326 8.757.361 13.112.103 1.196-.071 2.306.628 2.767 1.741.003.008.006.016.01.023 2.805 6.928 9.495 11.138 16.547 11.137 2.223 0 4.484-.419 6.667-1.303l21.741-8.802c9.098-3.685 13.51-14.073 9.85-23.175-.006-.015-.012-.029-.018-.044-.455-1.125-.146-2.409.769-3.195 3.308-2.844 6.453-5.938 9.347-9.196.794-.893 2.078-1.179 3.194-.704 9.072 3.842 19.526-.386 23.369-9.461l9.149-21.598c3.835-9.051-.41-19.534-9.46-23.369zm-164.331-94.103c.046 2.123.477 4.242 1.293 6.271.005.014.011.027.017.042.456 1.125.147 2.409-.767 3.194-3.309 2.844-6.454 5.938-9.348 9.197-.794.894-2.079 1.178-3.194.703-.992-.42-2.008-.747-3.038-.981v-22.339c5.084.993 10.12 2.304 15.037 3.913zm-198.216-224.198c2.746-3.026 4.248-6.925 4.231-10.976-.038-9.154 5.332-17.286 13.681-20.719 5.057-2.08 8.759-6.378 10.156-11.793 1.91-7.402 8.736-12.299 16.265-11.645 3.197.29 6.221-1.51 7.514-4.449 3.153-7.164 10.981-10.836 18.258-8.734 5.986 1.728 12.342-.02 16.589-4.561 6.163-6.59 18.853-6.642 25.065.001 4.246 4.54 10.603 6.289 16.59 4.559 7.262-2.095 15.098 1.558 18.256 8.735 1.294 2.939 4.317 4.736 7.515 4.449 7.513-.656 14.355 4.242 16.264 11.645 1.397 5.414 5.099 9.711 10.157 11.792 8.348 3.433 13.718 11.565 13.68 20.72-.016 4.052 1.487 7.951 4.232 10.976 2.644 2.914 4.1 6.705 4.1 10.675 0 12.437-4.009 26.04-6.364 32.959-6.83.268-17.974 1.331-26.646 5.192l.135-32.336c.076-18.263-14.582-33.187-32.685-33.265l-.295-.001h-.208c-4.976 0-9.912.774-14.675 2.304-14.426 4.639-31.098 4.527-45.179 0-4.828-1.551-9.823-2.3-14.872-2.304l-.313.001c-18.094.078-32.752 15-32.677 33.265l.135 32.336c-8.672-3.862-19.816-4.924-26.646-5.192-2.356-6.922-6.364-20.523-6.364-32.959.001-3.97 1.457-7.761 4.101-10.675zm18.162 99.481c-.103-4.068-3.431-7.308-7.496-7.308h-.032l-6.072.025h-.037c-4.697 0-8.532-3.875-8.552-8.71l-.075-18.005c-.011-2.745 1.216-5.28 3.281-6.93 9.229.117 22.944 2.002 27.066 6.082 6.56 6.494 17.735 1.847 17.695-7.448l-.17-40.759c-.041-9.995 7.919-18.162 17.735-18.205l.313-.001c3.447.016 6.907.518 10.228 1.586 17.015 5.467 36.788 5.645 54.355 0 3.323-1.067 6.747-1.579 10.239-1.586l.296.001c9.825.043 17.786 8.21 17.744 18.205l-.17 40.759c-.039 9.276 11.129 13.952 17.695 7.448 4.222-4.178 18.62-6.046 27.863-6.084 1.514 1.603 2.4 3.761 2.409 6.049l.075 18.005c.02 4.78-3.739 8.765-8.518 8.786l-6.071.026c-4.079.018-7.395 3.292-7.465 7.371-.375 22.052-9.55 42.574-25.171 56.305-33.595 29.532-78.821 28.738-111.527.476-15.733-13.598-25.078-34.04-25.638-56.088zm116.53 85.768c.056.21-1.236 16.988 14.364 26.532-28.789 22.612-69.291 21.923-97.268-1.601 12.937-9.651 11.921-24.772 11.974-24.994 22.197 8.782 47.162 9.416 70.93.063zm-119.82 35.115v21.33c0 4.142 3.357 7.499 7.499 7.499 4.141 0 7.499-3.357 7.499-7.499v-24.219l6.372-1.226c35.664 35.717 93.463 36.135 129.623.703l2.316.446v28.648c-2.317 1.832-4.15 4.226-5.334 7.021l-9.149 21.598c-3.294 7.777-.626 16.609 5.931 21.375h-129.76v-19.293c0-4.142-3.357-7.499-7.499-7.499-4.141 0-7.499 3.357-7.499 7.499v19.292h-12.791c-4.21 0-8.196.979-11.743 2.72v-70.835c7.78-3.308 15.985-5.861 24.535-7.56zm-100.822 156.534v-33.694c0-45.122 24.21-85.589 61.29-107.67v87.446c0 6.566-2.546 12.749-7.164 17.404l-.087.088c-7.429 7.489-11.52 17.423-11.52 27.971v23.053h-27.922c-8.049-.001-14.597-6.549-14.597-14.598zm57.516-8.455c0-6.565 2.546-12.748 7.165-17.404l.086-.087c7.429-7.489 11.521-17.423 11.521-27.972v-.2c0-6.475 5.268-11.743 11.743-11.743h162.565c.029.966.071 1.931.128 2.893.072 1.204-.636 2.319-1.76 2.774-.027.012-.055.022-.083.034-9.033 3.706-13.461 14.034-9.756 23.183l5.829 14.396h-132.45c-4.141 0-7.499 3.357-7.499 7.499s3.357 7.499 7.499 7.499h141.369c4.824 3.546 11.324 4.587 17.269 2.182.013-.005.025-.011.038-.016 1.118-.436 2.383-.124 3.161.781 2.844 3.308 5.938 6.454 9.197 9.349.894.794 1.176 2.077.703 3.194-.913 2.154-1.386 4.42-1.42 6.691h-225.305zm385.545-82.733c-.016.007-.032.013-.048.02-7.094 2.874-11.556 9.932-11.102 17.565.219 3.685.19 7.419-.087 11.099-.572 7.613 3.778 14.733 10.823 17.718 1.436.608 2.11 2.272 1.502 3.708l-9.149 21.598c-.608 1.435-2.267 2.114-3.71 1.502-7.044-2.984-15.186-1.154-20.256 4.553-2.449 2.757-5.111 5.376-7.912 7.784-5.787 4.975-7.757 13.068-4.91 20.153l.019.047c.585 1.446-.115 3.1-1.561 3.685l-21.74 8.802c-1.441.584-3.085-.109-3.678-1.542-.003-.008-.006-.016-.009-.023-2.873-7.094-9.928-11.568-17.565-11.102-3.684.22-7.419.189-11.097-.087-7.616-.568-14.733 3.776-17.719 10.821-.609 1.438-2.27 2.113-3.71 1.502l-21.598-9.149c-1.437-.609-2.111-2.269-1.501-3.708 2.985-7.046 1.156-15.187-4.552-20.257-2.758-2.45-5.377-5.111-7.784-7.913-4.984-5.798-13.099-7.762-20.195-4.893-.012.005-.024.01-.036.015-.43.168-.877.223-1.308.18-.663-1.039-1.575-1.904-2.653-2.51l-8.496-20.984c-.586-1.448.111-3.098 1.561-3.685l.081-.033c7.051-2.892 11.479-9.928 11.027-17.535-.219-3.684-.189-7.428.087-11.099.572-7.612-3.777-14.732-10.822-17.717-1.437-.608-2.111-2.273-1.503-3.709l9.149-21.598c.609-1.439 2.269-2.11 3.71-1.502 7.046 2.986 15.186 1.155 20.257-4.553 2.449-2.757 5.111-5.376 7.912-7.783 5.786-4.974 7.757-13.065 4.912-20.149-.007-.017-.013-.034-.02-.051-.579-1.43.093-3.091 1.561-3.685l21.74-8.803c1.439-.584 3.086.107 3.678 1.544.003.007.006.015.009.021 2.873 7.095 9.93 11.56 17.565 11.103 3.684-.219 7.419-.19 11.099.087 7.619.575 14.733-3.778 17.717-10.822.608-1.437 2.272-2.112 3.71-1.502l21.597 9.149c1.437.608 2.111 2.273 1.502 3.709-2.985 7.045-1.156 15.185 4.552 20.257 2.757 2.449 5.376 5.11 7.783 7.911 4.96 5.771 13.02 7.745 20.09 4.936.037-.014.074-.028.111-.044 1.446-.586 3.097.112 3.684 1.561l8.802 21.742c.581 1.435-.104 3.066-1.519 3.666z" />
        </g>
    </g>
</svg>