<svg height="512" viewBox="0 0 50 60" width="512" xmlns="http://www.w3.org/2000/svg">
    <g fill="none" fill-rule="evenodd" id="Page-1">
        <g fill-rule="nonzero" id="001---Jerry-Can">
            <path
                d="m42 12h-19c-.6120286.0183671-1.2043714.2204605-1.7.58-.0451606.0308881-.0885614.0642733-.13.1l-9.07 7.42c-.1172162.098964-.2274771.2058836-.33.32-.4972176.5472417-.771865 1.2606115-.77 2v33.58c0 1.6568542 1.3431458 3 3 3h32c1.6568542 0 3-1.3431458 3-3v-35zm2 41c0 .5522847-.4477153 1-1 1h-26c-.5522847 0-1-.4477153-1-1v-26c0-.5522847.4477153-1 1-1h26c.5522847 0 1 .4477153 1 1z"
                fill="#e8edfc" id="Shape" />
            <path
                d="m42 12h-3l7 9v35c0 1.6568542-1.3431458 3-3 3h3c1.6568542 0 3-1.3431458 3-3v-35z"
                fill="#cad9fc" id="Shape" />
            <path
                d="m49 9.5v11.5l-7-9v-2.5c0-1.38071187-1.1192881-2.5-2.5-2.5h-9c-1.3807119 0-2.5 1.11928813-2.5 2.5v2.5h-5v-2.5c0-4.14213562 3.3578644-7.5 7.5-7.5h11c4.1421356 0 7.5 3.35786438 7.5 7.5z"
                fill="#a4c2f7" id="Shape" />
            <path
                d="m41.5 2h-3c4.1421356 0 7.5 3.35786438 7.5 7.5v7.643l3 3.857v-11.5c0-4.14213562-3.3578644-7.5-7.5-7.5z"
                fill="#7facfa" id="Shape" />
            <rect fill="#e8edfc" height="28" id="Rectangle-path" rx="1" width="28" x="16" y="26" />
            <path
                d="m43 26h-3c.5522847 0 1 .4477153 1 1v26c0 .5522847-.4477153 1-1 1h3c.5522847 0 1-.4477153 1-1v-26c0-.5522847-.4477153-1-1-1z"
                fill="#cad9fc" id="Shape" />
            <path
                d="m15.9 10.95-4.81 4.12-.01.01c-.75-.98-1.56-1.96-2.44-2.97-.24-.27-.48-.53-.72-.79-1.04-1.12-2.05-2.12-3.06-3.02-.22-.2-.47-.41-.72-.63-.83962603-.72761191-1.72113447-1.40543847-2.64-2.03-.44210449-.28264714-.59054441-.8589433-.34-1.32l1.47-2.71c.26021376-.47910573.85625031-.66147512 1.34-.41 1.28111103.70544484 2.51685568 1.49030969 3.7 2.35.23.17.45.34.66.49 1.34 1 2.66 2.11 4.05 3.38.18.17.37.34.56.52 1.06 1 2.05 2.01 2.96 3.01z"
                fill="#e8edfc" id="Shape" />
            <path
                d="m12.94 7.94c-.19-.18-.38-.35-.56-.52-1.39-1.27-2.71-2.38-4.05-3.38-.21-.15-.43-.32-.66-.49-1.18314432-.85969031-2.41888897-1.64455516-3.7-2.35-.48374969-.25147512-1.07978624-.06910573-1.34.41l-.23.425c.827.511 1.6 1.033 2.27 1.515.23.17.45.34.66.49 1.34 1 2.66 2.11 4.05 3.38.18.17.37.34.56.52 1.06 1 2.05 2.01 2.96 3.01l-3.037 2.6c.422.512.8276667 1.0213333 1.217 1.528l.01-.01 4.81-4.12c-.91-.998-1.9-2.008-2.96-3.008z"
                fill="#cad9fc" id="Shape" />
            <path
                d="m21.3 12.58c-.0451606.0308881-.0885614.0642733-.13.1l-9.07 7.42c-.1172162.098964-.2274771.2058836-.33.32l-1.24-3.09c-.3160359-.7904915-.0950694-1.6944454.55-2.25l.01-.01 4.81-4.12.01-.01c.6527132-.5611003 1.5912132-.6416582 2.33-.2z"
                fill="#a4c2f7" id="Shape" />
            <path
                d="m1.5 5.64c3.13362283 2.24581078 5.94709603 4.9075589 8.363 7.912.422.512.8276667 1.0213333 1.217 1.528-.6450694.5555546-.8660359 1.4595085-.55 2.25l1.24 3.09c-.4972176.5472417-.771865 1.2606115-.77 2v33.58c0 1.6568542 1.3431458 3 3 3h3c-1.6568542 0-3-1.3431458-3-3v-33.58c-.001865-.7393885.2727824-1.4527583.77-2l-1.24-3.09c-.3160359-.7904915-.0950694-1.6944454.55-2.25-.3893333-.508-.795-1.0173333-1.217-1.528-2.415904-3.0044411-5.22937717-5.66618922-8.363-7.912-.44210449-.28264714-.59054441-.8589433-.34-1.32l1.24-2.285c-.48-.3-.958-.579-1.43-.834-.48374969-.25147512-1.07978624-.06910573-1.34.41l-.23.425-1.24 2.284c-.25054441.4610567-.10210449 1.03735286.34 1.32z"
                fill="#fff" id="Shape" />
            <path d="m10 48h2v8h-2z" fill="#fff" id="Rectangle-path" />
            <g fill="#428dff">
                <path
                    d="m11.02 53c-.3572656.0017863-.6883456-.187162-.8685254-.4956699s-.18208579-.6897057-.005-1c.1770858-.3102942.5062598-.5025438.8635254-.5043301h.01c.5522847 0 1 .4477153 1 1s-.4477153 1-1 1z"
                    id="Shape" />
                <path
                    d="m15 27v26c0 1.1045695.8954305 2 2 2h26c1.1045695 0 2-.8954305 2-2v-26c0-1.1045695-.8954305-2-2-2h-26c-1.1045695 0-2 .8954305-2 2zm28 26h-26v-26h26z"
                    id="Shape" />
                <path
                    d="m.941 6.469c1.13891524.78696627 2.22522637 1.64746365 3.252 2.576 1.29830828 1.1720207 2.53117031 2.414564 3.693 3.722.715.821 1.336 1.577 1.917 2.313-.46688975.7969285-.54066543 1.7644965-.2 2.623l1.039 2.589c-.4131327.6340687-.6359253 1.3732406-.642 2.13v25.578c0 .5522847.4477153 1 1 1s1-.4477153 1-1v-25.578c-.0014404-.6000973.2678641-1.1688332.733-1.548l9.072-7.422c.3574144-.2918593.8045602-.4515038 1.266-.452h18.44l6.489 8.343v34.657c0 1.1045695-.8954305 2-2 2h-32c-1.1045695 0-2-.8954305-2-2 0-.5522847-.4477153-1-1-1s-1 .4477153-1 1c0 2.209139 1.790861 4 4 4h32c2.209139 0 4-1.790861 4-4v-46.5c-.0055104-4.69213598-3.807864-8.49448956-8.5-8.5h-11c-4.692136.00551044-8.4944896 3.80786402-8.5 8.5v1.661c-.236376.0652017-.4660633.15259-.686.261l-2.563-1.541c-.8096329-.48437506-1.8003013-.55849915-2.673-.2-.784-.837-1.6-1.667-2.454-2.474-1.492806-1.40931669-3.061832-2.73564443-4.7-3.973-1.42130017-1.07603298-2.91741684-2.04949464-4.477-2.913-.97018749-.51760603-2.17626112-.15489056-2.7.812l-1.457 2.694c-.50782382.9153301-.22395101 2.06739148.651 2.642zm40.059 4.531h-12v-1.5c0-.82842712.6715729-1.5 1.5-1.5h9c.8284271 0 1.5.67157288 1.5 1.5zm-10.5-8h11c3.5880235.0044079 6.4955921 2.91197652 6.5 6.5v8.585l-5-6.428v-2.157c0-1.93299662-1.5670034-3.5-3.5-3.5h-9c-1.9329966 0-3.5 1.56700338-3.5 3.5v1.5h-3v-1.5c.0044079-3.58802348 2.9119765-6.4955921 6.5-6.5zm-12.775 8.6 1.838 1.1-7.387 6.044-.718-1.787c-.1582321-.3967068-.0450717-.8501541.281-1.126l.028-.026 4.8-4.11c.3261242-.2756644.7913087-.3138272 1.158-.095zm-3.273-.723-3.234 2.772c-.56-.7-1.152-1.422-1.833-2.2l-.038-.041 3.01-2.633c.726.682 1.421 1.388 2.095 2.099zm-3.582-3.466-2.888 2.526c-.822-.854-1.63-1.643-2.439-2.368l2.278-2.659c1.007.76 2.016 1.59 3.049 2.501zm-7.376-5.331c.92641143.50693065 1.82564257 1.06202396 2.694 1.663l-2.167 2.529c-.592-.48-1.263-.99-1.982-1.476z"
                    id="Shape" />
                <path
                    d="m19.293 50.707c.3904999.3903819 1.0235001.3903819 1.414 0l9.293-9.293 9.293 9.293c.3923789.3789722 1.0160848.3735524 1.4018186-.0121814s.3911536-1.0094397.0121814-1.4018186l-9.293-9.293 9.293-9.293c.3789722-.3923789.3735524-1.0160848-.0121814-1.4018186s-1.0094397-.3911536-1.4018186-.0121814l-9.293 9.293-9.293-9.293c-.3923789-.3789722-1.0160848-.3735524-1.4018186.0121814s-.3911536 1.0094397-.0121814 1.4018186l9.293 9.293-9.293 9.293c-.3903819.3904999-.3903819 1.0235001 0 1.414z"
                    id="Shape" />
                <path
                    d="m18.64 21.768 5.722-4.768h10.638c.5522847 0 1-.4477153 1-1s-.4477153-1-1-1h-11c-.2339007.0001052-.4603643.0821983-.64.232l-6 5c-.2843523.2256201-.4241148.5876116-.3651597.9457805.0589552.3581689.3073693.6562658.6490353.7788424.3416661.1225765.7229263.0503823.9961244-.1886229z"
                    id="Shape" />
            </g>
        </g>
    </g>
</svg>