<svg height="512pt" viewBox="0 -67 512 512" width="512pt" xmlns="http://www.w3.org/2000/svg">
    <path
        d="m445.1875 335.6875h-378.375c-1.785156 0-3.496094-.3125-5.082031-.882812-34.476563-2.601563-61.730469-31.457032-61.730469-66.558594 0-26.082032 15.304688-49.375 38.058594-60.253906-1.738282-7.941407-2.617188-16.042969-2.617188-24.21875 0-66.597657 58.09375-120.78125 129.496094-120.78125 13.730469 0 27.085938 1.960937 39.894531 5.84375 13.234375-40.289063 51.328125-68.835938 95.105469-68.835938 38.566406 0 73.640625 22.367188 90.179688 56.574219 27.769531 2.828125 53.496093 14.515625 73.28125 33.460937 22.417968 21.46875 34.761718 49.875 34.761718 79.996094 0 16.152344-3.628906 32.035156-10.59375 46.644531 15.191406 12.535157 24.433594 31.46875 24.433594 51.570313 0 35.101562-27.253906 63.957031-61.730469 66.558594-1.585937.570312-3.296875.882812-5.082031.882812zm0 0"
        fill="#006da6" />
    <path
        d="m487.570312 216.675781c6.960938-14.609375 10.59375-30.492187 10.59375-46.644531 0-30.121094-12.347656-58.527344-34.761718-79.996094-19.789063-18.945312-45.515625-30.636718-73.285156-33.464844-16.539063-34.207031-51.613282-56.570312-90.179688-56.570312-15.613281 0-30.5 3.648438-43.796875 10.148438v325.535156h189.046875c1.785156 0 3.496094-.308594 5.082031-.878906 34.476563-2.601563 61.730469-31.457032 61.730469-66.558594 0-20.101563-9.242188-39.035156-24.429688-51.570313zm0 0"
        fill="#003554" />
    <path
        d="m288.644531 377.625h-65.011719c-8.289062 0-15.011718-6.714844-15.011718-15v-86.9375h-54.628906c-5.90625 0-11.261719-3.460938-13.6875-8.839844-2.425782-5.378906-1.472657-11.675781 2.4375-16.097656l101.605468-114.804688c2.742188-3.101562 6.648438-4.929687 10.789063-5.054687.335937-.011719.671875-.011719 1.003906 0 .335937-.011719.671875-.011719 1.007813 0 4.136718.125 8.042968 1.957031 10.785156 5.054687l101.601562 114.804688c3.914063 4.421875 4.867188 10.71875 2.441406 16.097656-2.425781 5.378906-7.78125 8.839844-13.6875 8.839844h-54.628906v86.9375c0 8.285156-6.722656 15-15.015625 15zm0 0"
        fill="#f3f5fb" />
    <path
        d="m369.535156 250.75-101.601562-114.800781c-2.742188-3.101563-6.648438-4.933594-10.789063-5.058594-.335937-.011719-.671875-.011719-1.003906.003906v246.730469h32.503906c8.292969 0 15.015625-6.714844 15.015625-15v-86.941406h54.625c5.90625 0 11.265625-3.457032 13.691406-8.835938 2.425782-5.378906 1.472657-11.675781-2.441406-16.097656zm0 0"
        fill="#dbe2eb" />
</svg>