<svg height="451pt" viewBox="-75 0 451 451.97529" width="451pt" xmlns="http://www.w3.org/2000/svg">
    <path
        d="m292.730469 59.949219v110.820312l-28.242188 27.910157h-228l-28.238281-27.910157v-110.820312zm0 0"
        fill="#00efd1" />
    <path d="m273.488281 58v1.949219h-247v-51.949219h247zm0 0" fill="#00acea" />
    <path d="m67.820312 198.679688h165.339844v50.089843h-165.339844zm0 0" fill="#fedb41" />
    <path
        d="m292.730469 52h-11.242188v-44c0-4.417969-3.578125-8-8-8h-247c-4.417969 0-8 3.582031-8 8v44h-10.238281c-2.089844 0-4.09375.839844-5.554688 2.339844-1.464843 1.496094-2.257812 3.519531-2.207031 5.609375v110.820312c-.042969 2.125.769531 4.175781 2.257813 5.691407l28.179687 28.070312c1.460938 1.519531 3.457031 2.410156 5.5625 2.46875h23v41.769531c.136719 4.527344 3.804688 8.148438 8.332031 8.230469h74.667969v43.261719c0 4.417969 3.582031 8 8 8 35.269531 0 63.863281 28.589843 63.863281 63.859375 0 35.269531-28.59375 63.859375-63.863281 63.859375-35.265625 0-63.859375-28.589844-63.859375-63.859375 0-4.417969-3.582031-8-8-8-4.417968 0-8 3.582031-8 8 .003906 43.0625 34.152344 78.371094 77.195313 79.808594 43.039062 1.441406 79.46875-31.507813 82.347656-74.476563s-28.832031-80.480469-71.683594-84.796875v-35.65625h74.671875c4.527344-.082031 8.195313-3.703125 8.328125-8.230469v-41.769531h23c2.125-.058594 4.144531-.945312 5.625-2.46875l28.121094-27.992188c1.488281-1.546874 2.300781-3.621093 2.253906-5.769531v-110.820312c.054688-2.089844-.742187-4.113281-2.203125-5.609375-1.460937-1.5-3.464844-2.339844-5.554687-2.339844zm-258.242188-36h231v36h-231zm191 225h-150v-34h150zm59-73.570312-23.285156 23.570312h-221.425781l-23.289063-23.570312v-99.429688h268zm0 0"
        fill="#083863" />
</svg>